<?xml version="1.0" standalone="no"?>
<!DOCTYPE svg PUBLIC "-//W3C//DTD SVG 20010904//EN"
 "http://www.w3.org/TR/2001/REC-SVG-20010904/DTD/svg10.dtd">
<svg version="1.0" xmlns="http://www.w3.org/2000/svg"
 width="360.000000pt" height="360.000000pt" viewBox="0 0 360.000000 360.000000"
 preserveAspectRatio="xMidYMid meet">
<metadata>
Created by potrace 1.14, written by Peter Selinger 2001-2017
</metadata>
<g transform="translate(0.000000,360.000000) scale(0.100000,-0.100000)"
fill="#000000" stroke="none">
<path d="M1026 3440 c-80 -24 -117 -120 -81 -207 20 -48 12 -69 -36 -94 -39
-20 -40 -20 -84 0 -75 33 -132 87 -139 132 -7 45 -54 103 -94 117 -36 13 -104
7 -141 -13 -17 -8 -40 -34 -52 -58 -39 -76 -24 -156 41 -210 53 -45 79 -160
49 -223 -21 -42 -60 -52 -117 -30 -26 10 -65 25 -87 33 -47 18 -114 20 -144 3
-53 -28 -77 -120 -47 -178 29 -55 114 -112 167 -112 39 0 121 -75 124 -112 0
-11 -115 -78 -172 -100 -129 -48 -124 -147 8 -173 54 -11 58 -13 26 -14 -75
-2 -137 -56 -137 -120 0 -20 10 -70 23 -111 23 -74 23 -75 6 -170 -10 -52 -22
-129 -27 -170 -6 -41 -20 -109 -31 -150 -31 -106 -37 -269 -17 -393 19 -115
56 -196 121 -263 37 -39 49 -46 73 -42 l30 4 4 -91 c3 -79 8 -101 37 -159 18
-36 46 -76 62 -88 l29 -22 -54 -56 c-34 -34 -67 -81 -86 -123 -28 -58 -32 -79
-33 -155 l-2 -87 1338 -3 1338 -2 -32 47 c-17 27 -50 67 -72 90 -23 24 -39 44
-36 46 2 2 40 24 83 48 115 64 242 190 290 289 20 41 41 104 48 139 7 44 23
84 49 125 l39 61 0 -38 c0 -43 35 -87 69 -87 49 0 72 20 103 87 28 60 32 79
36 178 2 74 -2 139 -12 200 -9 50 -23 164 -31 255 -22 243 -41 383 -71 500
-14 58 -28 114 -30 124 -6 34 -36 117 -75 213 l-38 94 37 -22 c20 -13 46 -29
57 -36 53 -35 125 6 125 71 0 37 -37 94 -114 175 -129 136 -538 345 -825 422
-42 11 -83 22 -91 24 -107 30 -383 77 -504 86 -161 12 -440 -1 -569 -25 l-67
-13 -35 38 c-32 36 -34 40 -30 104 5 112 -43 208 -122 241 -36 16 -37 16 -77
4z"/>
</g>
</svg>
